ModelForces
version=1
nRows=192
nColumns=3
inDegrees=no

This file contains the forces exerted on a model during a simulation.

A force is a generalized force, meaning that it can be either a force (N) or a torque (Nm).

Units are S.I. units (second, meters, Newtons, ...)
Angles are in degrees.

endheader
time	Liu	Thelen
      0.00000000	      6.68640903	      5.71316995
      0.00100000	      6.63386889	      5.71705777
      0.00221213	      6.56848000	      5.74811850
      0.00342427	      6.50149800	      5.82508337
      0.00463640	      6.43326399	      5.95550280
      0.00584854	      6.36418003	      6.13996461
      0.00706067	      6.29470859	      6.37518968
      0.00827281	      6.22536706	      6.65611723
      0.00851948	      6.21132159	      6.71838254
      0.00875203	      6.19811138	      6.77855986
      0.00894925	      6.18693440	      6.83069105
      0.00906062	      6.18063443	      6.86056473
      0.00912313	      6.17710245	      6.87746712
      0.00918564	      6.17357343	      6.89446591
      0.00949819	      6.15597702	      6.98088028
      0.01100907	      6.07249292	      7.42950209
      0.01251995	      5.99288987	      7.92256561
      0.01403083	      5.91887648	      8.45200221
      0.01554171	      5.85213805	      9.01102729
      0.01705258	      5.79433106	      9.59395101
      0.01856346	      5.74708061	     10.19597810
      0.02007434	      5.71198033	     10.81303333
      0.02158522	      5.69059430	     11.44162101
      0.02309610	      5.68446076	     12.07871578
      0.02460697	      5.69509712	     12.72167944
      0.02611785	      5.72400613	     13.36819794
      0.02762873	      5.77268298	     14.01623387
      0.02913961	      5.84262307	     14.66399057
      0.03065049	      5.93533050	     15.30988497
      0.03216136	      6.05232687	     15.95252690
      0.03367224	      6.19516053	     16.59070328
      0.03518312	      6.36541602	     17.22336579
      0.03621073	      6.49771182	     17.65005341
      0.03666739	      6.56095250	     17.83865129
      0.03712405	      6.62699810	     18.02659587
      0.03878984	      6.89246703	     18.70636701
      0.04045564	      7.19829280	     19.37647162
      0.04212143	      7.54697684	     20.03635901
      0.04378723	      7.94114553	     20.68566909
      0.04545303	      8.38356070	     21.32422580
      0.04711882	      8.87712729	     21.95203094
      0.04878462	      9.42489725	     22.56925826
      0.05022645	      9.94524445	     23.09521825
      0.05166828	     10.51074880	     23.61382368
      0.05288387	     11.02423652	     24.04563445
      0.05351168	     11.30306972	     24.26680915
      0.05413949	     11.59143791	     24.48678695
      0.05577500	     12.38882475	     25.05457660
      0.05741050	     13.25568768	     25.61550114
      0.05904600	     14.19556151	     26.17061683
      0.06068150	     15.21202276	     26.72110500
      0.06231700	     16.30864389	     27.26826829
      0.06395250	     17.48893544	     27.81352746
      0.06558800	     18.75627433	     28.35841836
      0.06722350	     20.11381678	     28.90458931
      0.06885900	     21.56439459	     29.45379852
      0.07049450	     23.11039344	     30.00791156
      0.07213000	     24.75361283	     30.56889863
      0.07376551	     26.49510765	     31.13883130
      0.07540101	     28.33501262	     31.71987855
      0.07703651	     30.27235188	     32.31430160
      0.07867201	     32.30483794	     32.92444720
      0.08030751	     34.42866578	     33.55273878
      0.08194301	     36.63831029	     34.20166515
      0.08357851	     38.92633734	     34.87376582
      0.08521401	     41.28324103	     35.57161277
      0.08684951	     43.69732159	     36.29778768
      0.08828777	     45.85649351	     36.96182904
      0.08972603	     48.03818489	     37.65147353
      0.09116429	     50.23015783	     38.36838300
      0.09260255	     52.41896512	     39.11414568
      0.09404080	     54.59009355	     39.89025024
      0.09547906	     56.72815947	     40.69805720
      0.09691732	     58.81715636	     41.53876773
      0.09835558	     60.84075089	     42.41339020
      0.09979384	     62.78262108	     43.32270489
      0.10123209	     64.62682685	     44.26722764
      0.10267035	     66.35820014	     45.24717304
      0.10410861	     67.96273961	     46.26241815
      0.10554687	     69.42799294	     47.31246804
      0.10698512	     70.74340956	     48.39642407
      0.10842338	     71.90064670	     49.51295661
      0.11017125	     73.08578107	     50.91108248
      0.11191911	     74.02342358	     52.35053034
      0.11366698	     74.71415612	     53.82613976
      0.11605754	     75.27172324	     55.89150811
      0.11844811	     75.41311298	     57.99420179
      0.12053734	     75.23422898	     59.84560870
      0.12262657	     74.81585294	     61.69342487
      0.12471580	     74.20394681	     63.52117039
      0.12680503	     73.44724169	     65.31215954
      0.12889426	     72.59511372	     67.05011367
      0.12943940	     72.36310010	     67.49294173
      0.12998453	     72.12871525	     67.93085797
      0.13068496	     71.82537020	     68.48592832
      0.13138540	     71.52109218	     69.03198335
      0.13208583	     71.21746573	     69.56854965
      0.13295538	     70.84371949	     70.22079810
      0.13382493	     70.47609881	     70.85695623
      0.13469448	     70.11724389	     71.47631874
      0.13576063	     69.69287950	     72.21188601
      0.13682678	     69.28978350	     72.92030484
      0.13789293	     68.91199514	     73.60080965
      0.13918688	     68.49285478	     74.38843534
      0.14048082	     68.12264456	     75.13356407
      0.14177477	     67.80692416	     75.83608570
      0.14334791	     67.50365419	     76.63333212
      0.14492104	     67.29621900	     77.36964302
      0.14649418	     67.19147259	     78.04743496
      0.14851310	     67.21677617	     78.83686497
      0.15053201	     67.43088932	     79.54402173
      0.15296050	     67.94944701	     80.30041387
      0.15499702	     68.61047749	     80.86950984
      0.15680588	     69.37345641	     81.33639010
      0.15861474	     70.30267564	     81.77695170
      0.16013342	     71.21073851	     82.13364374
      0.16165211	     72.23426384	     82.48442981
      0.16298418	     73.22545072	     82.79175218
      0.16431626	     74.30190071	     83.10268523
      0.16550826	     75.33536002	     83.38698850
      0.16670027	     76.43275939	     83.67966771
      0.16789228	     77.59135438	     83.98317866
      0.16894599	     78.66389700	     84.26238351
      0.16999970	     79.77912110	     84.55344950
      0.17105341	     80.93405015	     84.85785888
      0.17299195	     83.15103267	     85.45738052
      0.17493049	     85.46717939	     86.11474640
      0.17686903	     87.85605436	     86.83687989
      0.17880757	     90.28877385	     87.62954309
      0.18074611	     92.73450575	     88.49724420
      0.18268465	     95.16115161	     89.44314880
      0.18462318	     97.53620192	     90.46899523
      0.18636091	     99.59513733	     91.45674572
      0.18809863	    101.56506478	     92.50803748
      0.18983635	    103.42585892	     93.62092252
      0.19157408	    105.15979285	     94.79239317
      0.19331180	    106.75213340	     96.01838392
      0.19504952	    108.19164880	     97.29379505
      0.19678725	    109.47099680	     98.61254175
      0.19852497	    110.58696771	     99.96763204
      0.20026269	    111.54056693	    101.35127557
      0.20243975	    112.51436371	    103.11205193
      0.20461681	    113.26028112	    104.88670808
      0.20679387	    113.80527142	    106.65702599
      0.20897093	    114.18298674	    108.40490322
      0.21114799	    114.43188610	    110.11308844
      0.21332505	    114.59324610	    111.76591369
      0.21420662	    114.64331039	    112.41631006
      0.21483758	    114.67612663	    112.87444161
      0.21546854	    114.70756652	    113.32613271
      0.21652530	    114.75983005	    114.06759148
      0.21758206	    114.81545129	    114.78940182
      0.21863882	    114.87868877	    115.49081377
      0.21969558	    114.95357742	    116.17127488
      0.22099553	    115.06726922	    116.97909020
      0.22229548	    115.21086976	    117.75444721
      0.22359543	    115.39032489	    118.49756615
      0.22489538	    115.61095422	    119.20911077
      0.22655828	    115.96058132	    120.07506737
      0.22822118	    116.39338478	    120.89438255
      0.23027807	    117.05321993	    121.84957694
      0.23288149	    118.09727835	    122.98054959
      0.23494381	    119.09435952	    123.82844810
      0.23700612	    120.24068552	    124.64729790
      0.23878269	    121.34380981	    125.33920231
      0.24055926	    122.54786625	    126.02728138
      0.24233583	    123.84483442	    126.71955254
      0.24411240	    125.22465048	    127.42364931
      0.24588896	    126.67535471	    128.14665331
      0.24707559	    127.67711283	    128.64329674
      0.24780907	    128.30717814	    128.95668150
      0.24854255	    128.94422661	    129.27540331
      0.25093697	    131.05871673	    130.35695867
      0.25333139	    133.19595723	    131.50836180
      0.25572581	    135.31636891	    132.73565725
      0.25812023	    137.38238106	    134.04117802
      0.26051466	    139.36037408	    135.42354310
      0.26290908	    141.22246389	    136.87780787
      0.26530350	    142.94798006	    138.39576656
      0.26769792	    144.52450451	    139.96640270
      0.27009234	    145.94837335	    141.57647736
      0.27248676	    147.22459526	    143.21123572
      0.27488119	    148.36619836	    144.85520195
      0.27727561	    149.39307411	    146.49302146
      0.27967003	    150.33043147	    148.11030119
      0.28206445	    151.20700276	    149.69439320
      0.28370452	    151.78799856	    150.75487258
      0.28534458	    152.36442491	    151.79241094
      0.28698465	    152.94559662	    152.80520036
      0.28812300	    153.35640349	    153.49595645
      0.28926134	    153.77644723	    154.18048795
      0.29115514	    154.50260470	    155.30154840
